<?xml version="1.0" encoding="utf-8"?>
<!-- Generator: Adobe Illustrator 25.0.1, SVG Export Plug-In . SVG Version: 6.00 Build 0)  -->
<svg version="1.0" id="Layer_1" xmlns="http://www.w3.org/2000/svg" xmlns:xlink="http://www.w3.org/1999/xlink" x="0px" y="0px"
	 viewBox="0 0 1258 800" style="enable-background:new 0 0 1258 800;" xml:space="preserve">
<style type="text/css">
	.st0{fill:#00D6D4;}
	.st1{fill:#2C2C2C;}
	.st2{fill:none;}
</style>
<path class="st0" d="M665.7,69.8c66.2-8.5,135.4,11.6,186.6,54.5c40,33.2,68.5,78.3,81.4,128.7c14.3,56.2,8,117.4-17.7,169.3
	c-22.8,46.2-59.5,84.1-104.9,108.3c-54,29.1-119,36.3-178.2,20.5c-69.5-18.1-129.4-68.7-159.4-133.9c-20.8-44.3-27.5-95-19.6-143.3
	C471.4,166.5,557.6,83.3,665.7,69.8 M358.8,427.7c40.8-8.5,80.8,17.6,89.4,58.4c8.5,40.8-17.6,80.8-58.4,89.4
	c-40.8,8.5-80.8-17.6-89.4-58.4c-5.1-24.5,2.2-49.9,19.6-67.9C330.5,438.3,344.1,430.8,358.8,427.7L358.8,427.7z"/>
<path class="st1" d="M308.7,650c3.2,0,6.4,0,9.6,0c0,16.8,0.1,33.6,0,50.4c0,10.4-4.8,20.9-13.7,26.6c-10.6,6.6-24.7,6.5-35.7,1
	c1.1-3,2.3-6.1,3.4-9.1c9,5.3,21.8,5.3,29.6-2.3c4.8-4.6,6.8-11.3,6.8-17.8C308.8,682.5,308.7,666.2,308.7,650 M338.1,650.1
	c3.2,0,6.4,0,9.7,0c0,16.3,0,32.5,0,48.8c0,6.3,1.8,12.9,6.5,17.4c8.3,8.6,23.8,8.8,32,0c4.5-4.5,6.4-11.1,6.4-17.4
	c0.1-16.3,0-32.6,0.1-49h9.7c0,16.3,0,32.6,0,48.9c0,8.9-2.6,18.2-9.2,24.5c-12.1,11.8-33.6,11.7-45.7-0.1
	c-6.8-6.2-9.4-15.6-9.3-24.5C338,682.5,338.1,666.3,338.1,650.1 M430.3,656.2c8.9-6,20.2-7.1,30.6-5.5c8.7,1,16.4,6,20.7,13.6
	l-7.2,4.5c-8.2-10.9-25-12.7-36.5-6.5c-6.9,3.2-8.2,14.5-1.1,18.1c12.6,6.6,28.3,3.9,40.1,12.4c10.5,8.6,8.8,27.8-3.4,34.1
	c-12.9,6.7-28.2,6.9-41.2,0.5c-5.8-2.8-9.9-8-12.8-13.6c2.7-1.6,5.3-3.1,7.9-4.7c8,14,28,17.6,41.4,9.7c6.8-4,7.7-15.4,0.7-19.7
	c-12.4-7.2-28.3-4.1-40.2-12.7C419.9,679.2,420.5,662.9,430.3,656.2 M489.6,650h61.9c0,3,0,5.9,0,8.9c-8.7,0-17.5,0-26.2,0
	c0,23.6,0,47.2,0,70.8h-9.4c-0.1-23.6,0-47.2,0-70.8c-8.8-0.1-17.6,0.2-26.3-0.1C489.6,655.9,489.6,652.9,489.6,650 M571.2,650h9.6
	v79.7h-9.6C571.2,703.2,571.2,676.6,571.2,650 M605.4,650c2.3,0,4.5,0,6.8,0l47.8,61c0.1-20.3,0-40.7,0-61h9.6c0,26.6,0,53.1,0,79.7
	h-6.7c-16-20.3-32-40.6-48-60.9c0.1,20.3,0,40.6,0,60.9c-3.2,0-6.4,0-9.6,0L605.4,650 M694.9,650c3.9,0,7.9,0,11.8,0
	c9.3,13.7,18.5,27.3,27.9,41c9.2-13.6,18.5-27.2,27.6-40.9c4-0.1,7.9-0.1,11.9,0c0,26.6,0,53.1,0,79.7h-9.7c0-21.9-0.1-43.8,0-65.8
	c-7.8,11.7-16.3,22.9-24.3,34.4c-1.7,2.5-3.6,4.9-5.8,7.1c-10.2-13.6-19.6-27.6-29.6-41.3c0,21.8,0,43.7,0,65.5h-9.8
	C694.9,703.2,694.9,676.6,694.9,650 M798.6,729.7c0-26.6,0-53.2,0-79.7c3.2,0,6.4,0,9.6,0v79.7L798.6,729.7 M830.7,650
	c2.2,0,4.5,0,6.8,0c16,20.3,32,40.7,47.9,61c0-20.3,0-40.7,0-61h9.6v79.7h-6.7c-16-20.2-32-40.5-48-60.8c0,20.3,0,40.5,0,60.8
	c-3.2,0-6.4,0-9.6,0C830.7,703.1,830.7,676.6,830.7,650 M919.9,650c17.7,1.1,37.3-3.7,53.1,6.7c18,12.3,20.6,39.4,8.9,56.9
	c-6.3,10.2-18.4,15.5-30,16c-10.7,0.3-21.3,0-32,0.1C920,703.1,920,676.6,919.9,650 M929.9,659.6c0,20.1,0,40.2,0,60.2
	c11.6-0.6,24.2,2.1,34.9-3.6c17.6-10.2,19.6-38.9,3.1-51.1C956.9,656.9,942.5,660.2,929.9,659.6L929.9,659.6z"/>
<rect x="229" class="st2" width="800" height="800"/>
</svg>
